<svg width="24" height="18" viewBox="0 0 24 18" fill="none" xmlns="http://www.w3.org/2000/svg">
<path d="M11.5865 15.0709L13.0005 13.6569L14.4145 15.0709L20.5795 8.9059L21.6695 5.3539L19.1855 2.8709L18.1065 3.2069L16.5085 1.6089L18.5915 0.959904C18.9396 0.851728 19.3107 0.840757 19.6646 0.928176C20.0185 1.01559 20.3418 1.19808 20.5995 1.4559L23.0825 3.9389C23.3392 4.19566 23.5212 4.51747 23.609 4.86981C23.6967 5.22215 23.6868 5.59173 23.5805 5.9389L22.3455 9.9699L14.4155 17.8999L11.5855 15.0719L11.5865 15.0709ZM14.2365 0.749904L16.7185 3.2329C16.9752 3.48966 17.1572 3.81147 17.245 4.16381C17.3327 4.51615 17.3228 4.88573 17.2165 5.2329L15.9815 9.2609L8.05148 17.1919L0.271484 9.4139L8.17048 1.5159L12.2275 0.253904C12.5756 0.145728 12.9467 0.134757 13.3006 0.222176C13.6545 0.309595 13.9778 0.492079 14.2355 0.749904H14.2365ZM3.10048 9.4139L8.05048 14.3639L14.2145 8.1989L15.3045 4.6469L12.8205 2.1639L9.23548 3.2789L3.10048 9.4139ZM10.5245 6.9389C10.3812 6.80053 10.2669 6.63502 10.1883 6.45201C10.1097 6.269 10.0683 6.07218 10.0666 5.87301C10.0649 5.67384 10.1028 5.47632 10.1783 5.29197C10.2537 5.10763 10.3651 4.94015 10.5059 4.79931C10.6467 4.65847 10.8142 4.54709 10.9986 4.47167C11.1829 4.39625 11.3804 4.3583 11.5796 4.36003C11.7788 4.36176 11.9756 4.40314 12.1586 4.48175C12.3416 4.56037 12.5071 4.67464 12.6455 4.8179C12.914 5.10161 13.0612 5.47886 13.0558 5.86942C13.0505 6.25999 12.893 6.63307 12.6169 6.90933C12.3408 7.18559 11.9678 7.34324 11.5772 7.34877C11.1866 7.35429 10.8093 7.20725 10.5255 6.9389H10.5245ZM17.4105 7.9609L18.1925 5.0829C18.6425 5.2349 18.9475 5.4079 19.1095 5.6009C19.3651 5.90566 19.4892 6.29946 19.4545 6.69571C19.4198 7.09196 19.2292 7.45821 18.9245 7.7139C18.6345 7.9579 18.1295 8.0399 17.4105 7.9609Z" fill="#0A8791"/>
</svg>
