<svg width="41" height="40" viewBox="0 0 41 40" fill="none" xmlns="http://www.w3.org/2000/svg">
<path d="M28.5 34H12.5V37C12.5 37.7957 12.1839 38.5587 11.6213 39.1213C11.0587 39.6839 10.2956 40 9.5 40H7.5C6.70435 40 5.94129 39.6839 5.37868 39.1213C4.81607 38.5587 4.5 37.7957 4.5 37V33.66C3.32985 33.246 2.31684 32.4794 1.60048 31.4657C0.884118 30.4521 0.499642 29.2412 0.5 28V22C0.5 20.76 0.876 19.608 1.52 18.652L3.692 5.052C3.91755 3.64237 4.63832 2.35935 5.72484 1.43339C6.81137 0.507424 8.19244 -0.000799722 9.62 9.44597e-07H31.38C32.8065 0.0011789 34.1859 0.510546 35.2708 1.43674C36.3557 2.36294 37.0751 3.64536 37.3 5.054L39.466 18.634C40.118 19.594 40.498 20.754 40.498 22V28C40.4984 29.2412 40.1139 30.4521 39.3975 31.4657C38.6812 32.4794 37.6682 33.246 36.498 33.66V37C36.498 37.7957 36.1819 38.5587 35.6193 39.1213C35.0567 39.6839 34.2937 40 33.498 40H31.498C30.7024 40 29.9393 39.6839 29.3767 39.1213C28.8141 38.5587 28.498 37.7957 28.498 37V34H28.5ZM6.5 30H34.5C35.0304 30 35.5391 29.7893 35.9142 29.4142C36.2893 29.0391 36.5 28.5304 36.5 28V22C36.5 21.4696 36.2893 20.9609 35.9142 20.5858C35.5391 20.2107 35.0304 20 34.5 20H6.5C5.96957 20 5.46086 20.2107 5.08579 20.5858C4.71071 20.9609 4.5 21.4696 4.5 22V28C4.5 28.5304 4.71071 29.0391 5.08579 29.4142C5.46086 29.7893 5.96957 30 6.5 30ZM35 16.02L33.352 5.684C33.2769 5.2148 33.0373 4.78766 32.6759 4.47909C32.3146 4.17052 31.8552 4.00068 31.38 4H9.618C9.14215 3.99973 8.68179 4.16914 8.31962 4.4778C7.95744 4.78645 7.71719 5.21412 7.642 5.684L5.992 16.022C6.16095 16.0076 6.33043 16.0002 6.5 16H34.5C34.668 16 34.836 16.006 35 16.02ZM31.5 24C31.2348 24 30.9804 24.1054 30.7929 24.2929C30.6054 24.4804 30.5 24.7348 30.5 25C30.5 25.2652 30.6054 25.5196 30.7929 25.7071C30.9804 25.8946 31.2348 26 31.5 26C31.7652 26 32.0196 25.8946 32.2071 25.7071C32.3946 25.5196 32.5 25.2652 32.5 25C32.5 24.7348 32.3946 24.4804 32.2071 24.2929C32.0196 24.1054 31.7652 24 31.5 24ZM31.5 28C31.106 28 30.7159 27.9224 30.3519 27.7716C29.988 27.6209 29.6573 27.3999 29.3787 27.1213C29.1001 26.8427 28.8791 26.512 28.7284 26.1481C28.5776 25.7841 28.5 25.394 28.5 25C28.5 24.606 28.5776 24.2159 28.7284 23.8519C28.8791 23.488 29.1001 23.1573 29.3787 22.8787C29.6573 22.6001 29.988 22.3791 30.3519 22.2284C30.7159 22.0776 31.106 22 31.5 22C32.2956 22 33.0587 22.3161 33.6213 22.8787C34.1839 23.4413 34.5 24.2044 34.5 25C34.5 25.7956 34.1839 26.5587 33.6213 27.1213C33.0587 27.6839 32.2956 28 31.5 28ZM9.5 24C9.23478 24 8.98043 24.1054 8.79289 24.2929C8.60536 24.4804 8.5 24.7348 8.5 25C8.5 25.2652 8.60536 25.5196 8.79289 25.7071C8.98043 25.8946 9.23478 26 9.5 26C9.76522 26 10.0196 25.8946 10.2071 25.7071C10.3946 25.5196 10.5 25.2652 10.5 25C10.5 24.7348 10.3946 24.4804 10.2071 24.2929C10.0196 24.1054 9.76522 24 9.5 24ZM9.5 28C9.10603 28 8.71593 27.9224 8.35195 27.7716C7.98797 27.6209 7.65726 27.3999 7.37868 27.1213C7.1001 26.8427 6.87913 26.512 6.72836 26.1481C6.5776 25.7841 6.5 25.394 6.5 25C6.5 24.606 6.5776 24.2159 6.72836 23.8519C6.87913 23.488 7.1001 23.1573 7.37868 22.8787C7.65726 22.6001 7.98797 22.3791 8.35195 22.2284C8.71593 22.0776 9.10603 22 9.5 22C10.2956 22 11.0587 22.3161 11.6213 22.8787C12.1839 23.4413 12.5 24.2044 12.5 25C12.5 25.7956 12.1839 26.5587 11.6213 27.1213C11.0587 27.6839 10.2956 28 9.5 28ZM10.908 6.188C11.4384 6.188 11.9471 6.39871 12.3222 6.77379C12.6973 7.14886 12.908 7.65757 12.908 8.188V12.188C12.908 12.7184 12.6973 13.2271 12.3222 13.6022C11.9471 13.9773 11.4384 14.188 10.908 14.188C10.3776 14.188 9.86886 13.9773 9.49379 13.6022C9.11871 13.2271 8.908 12.7184 8.908 12.188V8.188C8.908 7.65757 9.11871 7.14886 9.49379 6.77379C9.86886 6.39871 10.3776 6.188 10.908 6.188Z" fill="#FE585A"/>
</svg>
