<svg width="18" height="17" viewBox="0 0 18 17" fill="none" xmlns="http://www.w3.org/2000/svg">
<path d="M6.96459 16.5C6.43416 16.5 5.92545 16.2893 5.55038 15.9142C5.17531 15.5391 4.96459 15.0304 4.96459 14.5C4.96459 13.9696 5.17531 13.4609 5.55038 13.0858C5.92545 12.7107 6.43416 12.5 6.96459 12.5C7.49503 12.5 8.00373 12.7107 8.37881 13.0858C8.75388 13.4609 8.96459 13.9696 8.96459 14.5C8.96459 15.0304 8.75388 15.5391 8.37881 15.9142C8.00373 16.2893 7.49503 16.5 6.96459 16.5ZM13.9646 16.5C13.4342 16.5 12.9255 16.2893 12.5504 15.9142C12.1753 15.5391 11.9646 15.0304 11.9646 14.5C11.9646 13.9696 12.1753 13.4609 12.5504 13.0858C12.9255 12.7107 13.4342 12.5 13.9646 12.5C14.495 12.5 15.0037 12.7107 15.3788 13.0858C15.7539 13.4609 15.9646 13.9696 15.9646 14.5C15.9646 15.0304 15.7539 15.5391 15.3788 15.9142C15.0037 16.2893 14.495 16.5 13.9646 16.5ZM0.926593 2.423C0.676955 2.41495 0.440234 2.31012 0.266491 2.13068C0.0927484 1.95125 -0.00439453 1.71127 -0.00439453 1.4615C-0.00439453 1.21173 0.0927484 0.971755 0.266491 0.792318C0.440234 0.61288 0.676955 0.508052 0.926593 0.5L2.07759 0.5C2.97959 0.5 3.75959 1.126 3.95559 2.006L5.20859 7.648C5.40459 8.528 6.18459 9.154 7.08659 9.154H14.5986L16.0406 3.384H6.69559C6.4483 3.37272 6.21488 3.26654 6.04388 3.08755C5.87287 2.90857 5.77745 2.67055 5.77745 2.423C5.77745 2.17545 5.87287 1.93743 6.04388 1.75845C6.21488 1.57946 6.4483 1.47328 6.69559 1.462H16.0406C16.3329 1.46191 16.6214 1.52848 16.8842 1.65663C17.1469 1.78479 17.377 1.97116 17.5569 2.20158C17.7368 2.43201 17.8618 2.70041 17.9224 2.9864C17.983 3.27238 17.9776 3.56842 17.9066 3.852L16.4646 9.62C16.3606 10.0362 16.1205 10.4057 15.7824 10.6697C15.4443 10.9337 15.0276 11.0771 14.5986 11.077H7.08659C6.21139 11.0771 5.36232 10.7787 4.67961 10.2311C3.9969 9.68348 3.52138 8.91938 3.33159 8.065L2.07759 2.423H0.926593Z" fill="#0A8791"/>
</svg>
