<svg width="21" height="20" viewBox="0 0 21 20" fill="none" xmlns="http://www.w3.org/2000/svg">
<path d="M18.5 18V7.13205L10.5 2.33205L2.5 7.13205V18H6.5V15.2501C6.5 14.1892 6.92143 13.1718 7.67157 12.4216C8.42172 11.6715 9.43913 11.2501 10.5 11.2501C11.5609 11.2501 12.5783 11.6715 13.3284 12.4216C14.0786 13.1718 14.5 14.1892 14.5 15.2501V18H18.5ZM12.5 20V15.2501C12.5 14.7196 12.2893 14.2109 11.9142 13.8358C11.5391 13.4608 11.0304 13.2501 10.5 13.2501C9.96957 13.2501 9.46086 13.4608 9.08579 13.8358C8.71071 14.2109 8.5 14.7196 8.5 15.2501V20H2.5C1.96957 20 1.46086 19.7893 1.08579 19.4143C0.710714 19.0392 0.5 18.5305 0.5 18V7.13205C0.499997 6.78668 0.589431 6.44719 0.759593 6.14665C0.929755 5.8461 1.17485 5.59474 1.471 5.41705L9.471 0.61705C9.78183 0.430549 10.1375 0.332031 10.5 0.332031C10.8625 0.332031 11.2182 0.430549 11.529 0.61705L19.529 5.41705C19.8252 5.59474 20.0702 5.8461 20.2404 6.14665C20.4106 6.44719 20.5 6.78668 20.5 7.13205V18C20.5 18.5305 20.2893 19.0392 19.9142 19.4143C19.5391 19.7893 19.0304 20 18.5 20H12.5Z" fill="white"/>
</svg>
