<svg width="20" height="14" viewBox="0 0 20 14" fill="none" xmlns="http://www.w3.org/2000/svg">
<path d="M2.00008 0.333252H8.66675C9.02037 0.333252 9.35951 0.473728 9.60956 0.723776C9.8596 0.973825 10.0001 1.31296 10.0001 1.66659C10.0001 2.02021 9.8596 2.35935 9.60956 2.60939C9.35951 2.85944 9.02037 2.99992 8.66675 2.99992H2.00008C1.64646 2.99992 1.30732 2.85944 1.05727 2.60939C0.807224 2.35935 0.666748 2.02021 0.666748 1.66659C0.666748 1.31296 0.807224 0.973825 1.05727 0.723776C1.30732 0.473728 1.64646 0.333252 2.00008 0.333252V0.333252ZM11.3334 10.9999H18.0001C18.3537 10.9999 18.6928 11.1404 18.9429 11.3904C19.1929 11.6405 19.3334 11.9796 19.3334 12.3333C19.3334 12.6869 19.1929 13.026 18.9429 13.2761C18.6928 13.5261 18.3537 13.6666 18.0001 13.6666H11.3334C10.9798 13.6666 10.6407 13.5261 10.3906 13.2761C10.1406 13.026 10.0001 12.6869 10.0001 12.3333C10.0001 11.9796 10.1406 11.6405 10.3906 11.3904C10.6407 11.1404 10.9798 10.9999 11.3334 10.9999ZM2.00008 5.66658H18.0001C18.3537 5.66658 18.6928 5.80706 18.9429 6.05711C19.1929 6.30716 19.3334 6.6463 19.3334 6.99992C19.3334 7.35354 19.1929 7.69268 18.9429 7.94273C18.6928 8.19278 18.3537 8.33325 18.0001 8.33325H2.00008C1.64646 8.33325 1.30732 8.19278 1.05727 7.94273C0.807224 7.69268 0.666748 7.35354 0.666748 6.99992C0.666748 6.6463 0.807224 6.30716 1.05727 6.05711C1.30732 5.80706 1.64646 5.66658 2.00008 5.66658Z" fill="#0A8791"/>
</svg>
