<svg width="56" height="24" viewBox="0 0 56 24" fill="none" xmlns="http://www.w3.org/2000/svg">
<path d="M11.1062 4.62012V15.5981H9.28617V7.7723L5.91588 13.2923H5.6942L2.32388 7.7565V15.5981H0.503906V4.62012H2.46633L5.80539 10.1091L9.1604 4.62012H11.1062Z" fill="#000"/>
<path d="M16.9447 15.8011C15.7842 15.8011 14.7981 15.4037 13.9858 14.6089C13.1734 13.8148 12.7676 12.8369 12.7676 11.6764C12.7676 10.5159 13.1734 9.53866 13.9858 8.74391C14.7981 7.94911 15.7842 7.55176 16.9447 7.55176C18.1052 7.55176 19.1045 7.94911 19.912 8.74391C20.7187 9.53866 21.1225 10.5159 21.1225 11.6764C21.1225 12.8369 20.7187 13.8148 19.912 14.6089C19.1052 15.4037 18.1163 15.8011 16.9447 15.8011ZM15.1879 13.4484C15.6626 13.9188 16.2484 14.1544 16.9447 14.1544C17.641 14.1544 18.2261 13.9188 18.7014 13.4484C19.176 12.9781 19.4137 12.3878 19.4137 11.6764C19.4137 10.965 19.176 10.3748 18.7014 9.90436C18.2268 9.43396 17.6417 9.19841 16.9447 9.19841C16.2477 9.19841 15.6633 9.43396 15.1879 9.90436C14.7133 10.3748 14.4757 10.9657 14.4757 11.6764C14.4757 12.3872 14.7133 12.9781 15.1879 13.4484Z" fill="#000"/>
<path d="M28.4586 7.75715H29.772V15.5987H28.0945V10.6118L24.0438 15.5987H22.7305V7.75715H24.4079V12.7282L28.4586 7.75715ZM24.0279 6.6594V5.18555H28.4586V6.6594H24.0279Z" fill="#000"/>
<path fill-rule="evenodd" clip-rule="evenodd" d="M55.6799 19.7299H42.7811L43.9096 17.7926L38.1606 23.4902V19.7299H34.7188V0.490234H55.6799V19.7299ZM52.4606 4.6204H50.3994L50.6156 12.5708H52.2437L52.4535 4.6204H52.4596H52.4606ZM50.4855 15.6004H52.4021V13.701H50.4855V15.6004ZM43.4871 4.48404C39.7909 4.48404 37.9168 7.29879 37.9168 10.1107C37.9168 12.9227 39.7909 15.7375 43.4871 15.7375C47.1833 15.7375 49.0151 12.9227 49.0151 10.1107C49.0151 7.29879 47.1827 4.48404 43.4871 4.48404ZM43.4871 6.51984C41.2363 6.51984 40.0807 8.31669 40.0807 10.1114C40.0807 11.9062 41.2363 13.703 43.4871 13.703C45.7379 13.703 46.8491 11.9062 46.8491 10.1114C46.8491 8.31669 45.7379 6.51984 43.4871 6.51984Z" fill="#F0047F"/>
</svg>
