<svg width="255" height="255" viewBox="0 0 255 255" fill="none" xmlns="http://www.w3.org/2000/svg">
<g clip-path="url(#clip0_1_2)">
<rect width="255" height="255" rx="127.5" fill="#0A8791"/>
<path fill-rule="evenodd" clip-rule="evenodd" d="M117.872 0.224485C87.9147 2.57085 60.3087 15.0022 38.8666 35.8018C16.4334 57.5625 2.91809 86.0246 0.366746 116.88C-0.121657 122.786 -0.122366 132.182 0.365327 138.051C2.93205 168.958 16.4857 197.477 38.9212 219.175C57.7025 237.34 81.8618 249.483 107.07 253.428C111.4 254.106 112.63 254.252 117.051 254.61C128.661 255.552 141.826 254.769 153.13 252.466C175.953 247.815 197.589 236.587 214.535 220.599C225.88 209.897 234.459 198.494 241.253 185.088C248.687 170.418 253.011 155.347 254.561 138.702C255.407 129.614 255.008 117.413 253.559 108.069C249.906 84.5005 239.974 62.8697 224.398 44.5542C223.291 43.2531 220.033 39.8458 217.16 36.9824C210.429 30.2782 204.983 25.8108 197.591 20.9315C179.685 9.11035 159.025 1.96811 137.985 0.324546C133.057 -0.0603247 122.2 -0.114495 117.872 0.224485ZM141.654 5.61552C163.938 8.42008 183.505 16.2639 201.048 29.4238C209.782 35.9756 218.326 44.4572 224.989 53.1884C249.418 85.2007 256.527 127.024 244.068 165.433C236.52 188.699 222.072 209.137 202.231 224.619C199.682 226.608 194.65 230.149 193.002 231.114C192.351 231.495 191.127 232.238 190.281 232.766C187.645 234.411 181.088 237.83 177.503 239.429C174.287 240.864 166.809 243.751 164.961 244.271C164.507 244.399 162.851 244.884 161.285 245.347C155.483 247.064 148.737 248.426 141.535 249.33C137.594 249.825 136.193 249.88 127.456 249.881C116.771 249.882 113.817 249.642 105.331 248.083C82.9675 243.974 62.3847 233.821 45.4672 218.553C8.11447 184.843 -4.87862 132.328 12.4346 85.0411C17.6062 70.9167 26.1851 56.7234 36.2859 45.5815C56.7667 22.9898 83.5773 9.10301 113.377 5.65194C119.312 4.96452 118.814 4.98416 128.64 5.04944C136.162 5.09959 138.288 5.19208 141.654 5.61552ZM128.994 10.9164C128.994 11.6415 128.494 11.7464 127.203 11.293C125.532 10.7059 123.956 10.7217 122.681 11.3389C121.277 12.0185 120.64 12.9907 120.521 14.636C120.352 16.9653 121.123 17.8767 124.918 19.8389C128.572 21.728 129.292 23.0296 127.562 24.6246C126.788 25.3385 125.37 25.5025 124.099 25.0245C123.045 24.6282 121.715 23.1725 121.267 21.9251C121.04 21.2957 120.797 20.7805 120.724 20.7805C120.579 20.7802 120.702 25.8104 120.851 25.9638C120.903 26.017 121.164 25.863 121.432 25.6215C121.898 25.1997 121.978 25.1983 123.423 25.5834C125.984 26.2653 127.692 26.017 129.13 24.754C130.238 23.7818 130.65 22.9262 130.65 21.597C130.65 19.3488 129.771 18.3811 126.111 16.6017C124.899 16.0122 123.614 15.2543 123.255 14.9175C122.39 14.1023 122.372 12.9494 123.214 12.1084C123.757 11.5641 123.965 11.5112 125.202 11.6006C126.966 11.7281 128.119 12.5567 128.89 14.25L129.44 15.4582L129.453 13.0336C129.462 11.5658 129.374 10.6089 129.231 10.6089C129.101 10.6089 128.994 10.7473 128.994 10.9164ZM134.595 11.6161C134.524 11.9078 134.397 12.8384 134.314 13.6841C134.175 15.0807 134.192 15.1675 134.491 14.6303C135.254 13.262 135.681 12.7696 136.346 12.4947C137.012 12.2187 138.801 12.2915 139.117 12.6075C139.253 12.7429 138.612 18.066 137.862 23.0206C137.513 25.3312 137.242 25.7286 135.988 25.7749C135.368 25.7977 136.766 26.0404 141.975 26.8144C142.685 26.92 142.957 26.8882 142.849 26.7127C142.762 26.5727 142.492 26.4579 142.248 26.4579C142.005 26.4579 141.631 26.2838 141.419 26.071C140.976 25.6283 141.032 24.6261 141.777 19.5979C142.018 17.9716 142.288 15.8426 142.377 14.8668C142.466 13.891 142.574 13.0532 142.617 13.0052C142.661 12.9569 143.201 12.9931 143.818 13.0854C145.116 13.2801 146.502 14.4597 146.508 15.3755C146.51 15.6813 146.602 16.0744 146.714 16.2495C146.953 16.627 147.099 16.1355 147.337 14.1392L147.495 12.8199L145.048 12.5212C141.158 12.0464 135.784 11.3226 135.231 11.1989C134.852 11.1142 134.691 11.2194 134.595 11.6161ZM113.377 11.7446C111.732 12.0904 111.66 12.1302 112.393 12.2842C112.828 12.3757 113.291 12.5584 113.423 12.69C113.947 13.2131 115.27 20.3636 115.269 22.6556C115.268 24.0931 114.581 25.181 113.313 25.7568C112.098 26.308 111.214 26.3387 110.293 25.8626C109.293 25.3459 109.01 24.623 108.297 20.7807C106.975 13.6479 106.969 13.2973 108.177 13.056C108.564 12.9787 108.881 12.8351 108.881 12.7372C108.881 12.6393 108.215 12.6972 107.402 12.8661C106.588 13.035 105.043 13.3007 103.967 13.4563C102.011 13.7396 101.12 14.1571 102.472 14.1571C103.419 14.1571 103.81 14.7878 104.158 16.8775C105.762 26.5024 106.228 27.3012 110.212 27.2679C112.612 27.2477 114.483 26.4492 115.409 25.0486C116.304 23.6973 116.329 22.8588 115.6 18.6254C115.232 16.4932 114.927 14.1632 114.923 13.4476C114.915 12.194 114.945 12.1313 115.743 11.7329L116.571 11.3193L115.861 11.3452C115.471 11.3597 114.353 11.5393 113.377 11.7446ZM151.001 13.403C151.001 13.5005 151.32 13.7009 151.71 13.8482C152.548 14.1641 152.619 14.7472 152.069 16.7687C150.29 23.3068 149.328 26.5369 149.066 26.8586C148.939 27.014 148.444 27.1737 147.965 27.2135C147.22 27.2757 147.432 27.3782 149.463 27.9363C150.764 28.294 152.334 28.7413 152.953 28.9304C153.581 29.1227 154.076 29.1747 154.076 29.0487C154.076 28.9247 153.924 28.8235 153.739 28.8235C153.236 28.8235 152.657 28.151 152.657 27.5673C152.657 27.2851 152.946 26.0156 153.299 24.7455C153.858 22.7395 154.009 22.4365 154.45 22.4365C154.834 22.4365 155.048 22.6834 155.322 23.4419C155.523 23.9949 156.154 25.7688 156.726 27.3843L157.766 30.3213L159.767 30.8623C162.186 31.5166 162.39 31.5317 161.717 31.0063C161.38 30.743 160.768 29.4217 160.001 27.2955C159.346 25.4795 158.81 23.8698 158.81 23.7184C158.81 23.567 159.209 23.3777 159.697 23.2976C161.644 22.9782 162.832 21.5803 162.832 19.6095C162.832 17.0465 161.668 16.2763 154.905 14.3642C153.083 13.8492 151.459 13.3823 151.296 13.3266C151.134 13.2713 151.001 13.3056 151.001 13.403ZM157.771 15.9336C159.013 16.4412 159.519 17.1749 159.519 18.4674C159.519 20.492 158.362 22.2 156.99 22.2C155.949 22.2 154.313 21.6798 154.313 21.3488C154.313 21.0837 155.495 16.7164 155.863 15.6194C155.972 15.2943 156.364 15.3589 157.771 15.9336ZM91.7656 16.7832C90.6563 17.0439 84.4354 19.1208 84.2711 19.2851C84.206 19.3502 84.5288 19.3334 84.9883 19.2475C85.6326 19.1272 85.9133 19.1901 86.214 19.5225C86.4286 19.7592 87.4569 22.508 88.4992 25.6302C90.5339 31.7257 90.5541 31.9033 89.2776 32.4869C88.9968 32.6154 88.7671 32.7982 88.7671 32.8933C88.7671 33.1592 96.3252 30.5046 97.4648 29.8385C99.4796 28.661 100.84 26.3463 100.832 24.1085C100.828 22.8853 100.259 20.9315 99.5574 19.7353C98.0517 17.1668 95.02 16.0182 91.7656 16.7832ZM93.4876 18.0541C95.8505 19.2755 97.9904 24.6228 97.3165 27.6215C97.1905 28.1812 96.8089 28.9299 96.468 29.2857C95.7445 30.0405 94.4416 30.5098 93.9043 30.2089C93.6885 30.0883 92.741 27.5936 91.6243 24.2066C90.5735 21.0191 89.7135 18.3552 89.7135 18.2871C89.7135 17.7154 92.4999 17.5434 93.4876 18.0541ZM167.973 18.6822C168.45 19.2064 168.537 19.7246 168.884 24.1187L169.269 28.9756L168.291 30.9207C167.753 31.9904 167.14 32.9316 166.93 33.0123C166.72 33.0928 166.225 33.0367 165.83 32.8876C164.493 32.3833 164.894 32.8191 166.412 33.5209C167.242 33.9043 168.866 34.6563 170.025 35.1924C172.202 36.1999 172.946 36.3494 171.48 35.4843C170.965 35.1813 170.641 34.8073 170.641 34.5187C170.641 34.2596 171.084 33.0812 171.625 31.8996L172.61 29.7512L175.93 27.4824C179.458 25.0713 180.565 24.4841 181.157 24.7114C181.36 24.7891 181.526 24.7614 181.526 24.65C181.525 24.4475 178.294 22.9068 177.873 22.9086C177.751 22.9092 177.884 23.1268 178.168 23.392C179.145 24.302 178.923 24.578 175.136 27.1536L172.652 28.8438L172.487 27.5917C172.397 26.9031 172.291 25.1687 172.251 23.7376L172.179 21.1355L172.948 21.1378C173.371 21.139 173.717 21.0842 173.717 21.0161C173.717 20.8991 168.944 18.6406 167.92 18.2727C167.475 18.1133 167.479 18.1389 167.973 18.6822ZM79.0061 21.505C77.9976 22.0204 77.1722 22.4874 77.1722 22.5428C77.1722 22.5981 77.5411 22.5835 77.9919 22.5104C78.6563 22.4027 78.9062 22.4839 79.31 22.9392C79.9398 23.6494 82.9112 29.3155 82.7422 29.4843C82.6731 29.5535 80.3172 28.5637 77.507 27.2849L72.3978 24.9599L70.5849 25.8623C69.5878 26.3586 68.5589 26.92 68.2986 27.1099C67.8438 27.4417 67.8487 27.4498 68.4297 27.3185C68.787 27.2376 69.3573 27.348 69.8251 27.5886C70.5033 27.9376 70.9656 28.6799 73.066 32.794C75.7541 38.0591 75.9857 38.9129 74.9168 39.6131C74.5875 39.8291 74.3634 40.051 74.419 40.1065C74.526 40.2135 78.8286 38.1103 78.8286 37.9508C78.8286 37.8995 78.4067 37.9142 77.8909 37.9832C77.1097 38.088 76.8693 38.0147 76.4507 37.545C75.9891 37.0271 71.7385 28.916 71.7323 28.5415C71.7309 28.4515 72.6616 28.7953 73.8003 29.3055C80.772 32.4294 86.055 34.6597 86.1146 34.5038C86.1528 34.4049 85.7424 33.4861 85.2032 32.4623C82.4855 27.304 80.2484 22.661 80.2484 22.1789C80.2484 21.8821 80.4798 21.3926 80.7628 21.0914C81.4715 20.3373 81.1363 20.4163 79.0061 21.505ZM62.8014 30.6775C61.0795 31.7877 59.702 32.7277 59.7409 32.7663C59.7794 32.8051 60.1528 32.7077 60.5705 32.5501C61.1153 32.3445 61.4453 32.3346 61.7381 32.5149C61.9626 32.6533 63.0826 34.2476 64.2267 36.0581C65.3711 37.8687 66.782 40.0937 67.362 41.0031C68.5816 42.9139 68.698 43.7676 67.818 44.3442C67.4886 44.5601 67.2705 44.7879 67.3332 44.8505C67.3958 44.9133 68.8395 44.0855 70.5411 43.0111C72.2427 41.9367 73.5986 41.021 73.5542 40.9766C73.5096 40.9324 73.1427 41.0205 72.7387 41.1729C72.158 41.3922 71.9259 41.3851 71.6296 41.1393C70.881 40.5181 65.045 30.9172 65.045 30.3064C65.045 29.9438 65.2704 29.5279 65.6034 29.2769C65.9105 29.0453 66.1102 28.8116 66.047 28.7574C65.9838 28.7033 64.5235 29.5674 62.8014 30.6775ZM122.013 29.4354C121.493 29.4872 119.683 29.6412 117.991 29.7777C101.074 31.1418 83.3068 37.9573 69.0085 48.5675C46.48 65.285 32.1212 90.738 29.5711 118.476C29.1934 122.584 29.1934 132.347 29.5711 136.454C30.8922 150.824 35.6491 165.43 42.957 177.555C47.4622 185.03 51.7236 190.495 57.8786 196.69C74.0529 212.973 94.829 222.846 117.872 225.202C121.673 225.591 132.716 225.59 136.659 225.2C167.727 222.125 195.116 204.842 211.365 178.056C217.935 167.226 222.519 154.539 224.347 142.132C225.156 136.638 225.339 133.929 225.339 127.466C225.339 117.854 224.534 111.44 222.194 102.391C215.345 75.9133 196.455 52.5078 171.87 40.0365C160.824 34.4333 149.02 30.9543 137.04 29.7704C134.438 29.5132 123.646 29.2726 122.013 29.4354ZM188.236 32.3776C186.572 33.036 185.078 34.4165 184.24 36.0724C183.632 37.2731 183.539 37.7095 183.548 39.35C183.56 41.5303 184.006 42.6171 185.595 44.3409C187.125 46.0002 188.842 46.8561 190.906 46.9886C192.096 47.065 192.755 47.0065 193 46.8034C193.624 46.2853 193.396 46.1853 191.819 46.2856C190.508 46.369 190.088 46.2893 188.978 45.7462C188.258 45.3942 187.384 44.728 187.026 44.2585C186.459 43.5167 186.377 43.1947 186.377 41.734C186.377 39.6894 187.162 37.9464 188.979 35.9562C191.481 33.2155 194.284 32.833 196.489 34.9313C197.624 36.0116 197.941 37.0044 197.797 39.0286C197.732 39.9211 197.706 40.6511 197.738 40.6511C197.836 40.6511 200.253 37.2915 200.365 36.9991C200.437 36.8125 200.217 36.7526 199.688 36.8144C198.971 36.8979 198.84 36.8052 198.14 35.7256C197.241 34.3382 196.098 33.2858 194.712 32.566C193.252 31.8087 189.919 31.7118 188.236 32.3776ZM128.737 38.6501C131.667 39.3406 132.008 39.6254 143.082 50.635L153.502 60.9946H169.264C184.454 60.9946 185.081 61.0121 186.587 61.4766C189.589 62.4035 192.332 65.131 193.478 68.3278C193.917 69.5545 193.951 70.4707 194.065 84.3619L194.186 99.0949L204.478 109.53C210.14 115.269 215.064 120.402 215.422 120.936C215.78 121.47 216.307 122.598 216.594 123.445C217.587 126.369 217.116 130.044 215.422 132.577C215.064 133.112 210.113 138.268 204.42 144.034L194.067 154.518V169.346C194.067 178.28 193.973 184.68 193.829 185.448C193.23 188.657 190.836 191.753 187.802 193.244L186.151 194.055L170.173 194.122L154.195 194.189L143.784 204.543C132.31 215.954 132.361 215.914 128.901 216.451C127.515 216.666 126.762 216.662 125.448 216.427C122.265 215.858 121.997 215.639 110.832 204.502L100.597 194.292L84.5534 194.174L68.5099 194.055L66.7302 193.176C64.4437 192.046 62.7854 190.323 61.6038 187.85L60.7264 186.013L60.6592 170.163L60.5921 154.315L49.8761 143.551C40.0084 133.64 39.108 132.669 38.4998 131.281C37.126 128.146 37.126 125.366 38.4998 122.231C39.108 120.844 40.009 119.872 49.8748 109.961L60.5895 99.1978L60.6578 84.1585L60.7264 69.1192L61.7317 67.0917C62.9288 64.6772 64.5478 63.0625 66.9502 61.8878L68.5352 61.1128L83.7978 61.0454L99.0604 60.9778L109.472 50.6049C120.521 39.597 120.799 39.365 123.735 38.6534C125.531 38.2179 126.899 38.2169 128.737 38.6501ZM203.615 39.9625C203.83 40.269 204.006 40.7355 204.006 40.9995C204.006 41.501 196.053 50.1726 195.344 50.4448C195.133 50.5257 194.573 50.3688 194.1 50.0962C193.273 49.6199 198.59 54.9542 201.335 57.356L202.568 58.4351L204.229 57.069C205.143 56.3177 205.844 55.6561 205.786 55.5988C205.729 55.5416 205.249 55.6676 204.721 55.8791C202.829 56.6358 201.181 56.2318 199.375 54.5677C197.882 53.1921 197.956 52.8444 200.221 50.5196L202.115 48.5756L202.706 49.2394C203.446 50.0723 203.449 50.8995 202.715 52.183C202.399 52.736 202.231 53.1884 202.341 53.1884C202.557 53.1884 207.563 47.9137 207.453 47.803C207.417 47.7666 206.919 48.0038 206.347 48.3308C205.775 48.6574 204.973 48.9259 204.564 48.9276C203.602 48.9313 202.672 48.2105 202.965 47.689C203.247 47.1872 206.613 43.7263 206.819 43.7263C207.07 43.7263 209.363 46.1498 209.657 46.7267C210.018 47.4326 209.976 48.6889 209.566 49.4035C209.038 50.3286 209.112 50.7485 209.712 50.2089C210.796 49.2303 212.122 47.4642 211.886 47.3128C211.75 47.2268 209.86 45.4531 207.684 43.3714C203.805 39.6609 202.834 38.8478 203.615 39.9625ZM124.024 41.5706C122.412 42.091 121.019 43.349 111.129 53.2066L100.48 63.8199L84.981 63.8858C69.5369 63.9513 69.4777 63.9534 68.3556 64.4761C66.6796 65.2572 65.0381 66.9157 64.2475 68.6272L63.566 70.1019L63.4965 85.3595L63.4266 100.617L52.6115 111.436C40.3143 123.736 40.6129 123.354 40.6129 126.757C40.6129 130.161 40.3117 129.777 52.6235 142.084L63.4512 152.908L63.5085 168.987L63.566 185.067L64.2475 186.541C65.0383 188.253 66.7009 189.932 68.3656 190.701C69.4729 191.213 69.6083 191.217 85.6244 191.284L101.767 191.351L112.245 201.814C120.178 209.736 123.01 212.42 123.906 212.865C124.917 213.367 125.417 213.453 127.338 213.452C129.232 213.452 129.753 213.365 130.65 212.898C131.36 212.529 135.211 208.857 142.187 201.899L152.659 191.453L168.926 191.335L185.193 191.217L186.564 190.522C188.166 189.711 189.64 188.206 190.361 186.645C190.865 185.555 190.874 185.316 190.99 169.396L191.109 153.254L196.577 147.752C214.784 129.432 214.061 130.302 214.062 126.758C214.062 123.218 214.708 123.992 196.462 105.642L191.109 100.259L190.99 84.9439C190.875 69.9266 190.863 69.6074 190.367 68.5354C189.639 66.9606 188.275 65.5617 186.627 64.7009L185.193 63.9515L168.629 63.886L152.066 63.8207L141.417 53.2151C129.472 41.3188 129.728 41.5207 126.509 41.4313C125.468 41.4024 124.35 41.465 124.024 41.5706ZM45.9454 44.4517C44.4532 45.8616 43.2932 47.0761 43.3678 47.1506C43.4423 47.2251 43.6381 47.1237 43.8027 46.9254C44.4626 46.1305 45.3105 46.488 47.0211 48.282C52.3266 53.8463 53.2871 54.8828 53.651 55.438C54.0364 56.0262 54.0312 56.0816 53.5237 56.7676C53.2326 57.1613 53.0303 57.5194 53.0743 57.5631C53.1183 57.6069 55.2544 55.6724 57.8214 53.2643L62.4884 48.8857L61.0353 46.9566C60.236 45.8955 59.5466 44.983 59.5036 44.9286C59.4602 44.8744 59.3699 44.8853 59.3024 44.9525C59.2349 45.02 59.3925 45.5435 59.6522 46.1157C59.9479 46.7673 60.1264 47.6724 60.1297 48.537C60.1349 49.9088 60.1256 49.9272 58.6774 51.4347C57.7243 52.4271 57.0344 52.9518 56.6827 52.9518C56.2927 52.9518 55.0617 51.8041 52.2019 48.774C50.0329 46.4762 48.1439 44.3448 48.0039 44.0376C47.7942 43.5777 47.8439 43.3508 48.2838 42.7559C48.5778 42.3586 48.7823 42.0007 48.7383 41.9606C48.6943 41.9209 47.4376 43.042 45.9454 44.4517ZM215.308 52.4479L215.419 53.6L213.203 55.385C208.192 59.4208 206.991 60.3358 206.226 60.7003C205.458 61.0669 205.395 61.0606 204.696 60.5447C204.296 60.2487 203.936 60.0428 203.895 60.0867C203.763 60.2301 206.899 64.0949 207.035 63.9581C207.109 63.885 207.043 63.6993 206.888 63.5453C206.735 63.3915 206.609 62.8676 206.609 62.3815C206.609 61.5197 206.71 61.4168 210.668 58.2863C212.9 56.5202 214.763 55.1106 214.806 55.1539C214.88 55.2279 214.445 57.2274 212.75 64.602C211.683 69.2475 211.497 70.2175 211.642 70.363C211.714 70.4356 214.07 68.6846 216.876 66.4719C219.682 64.2594 222.205 62.3772 222.484 62.2888C222.827 62.18 223.222 62.2997 223.712 62.662C224.722 63.4084 224.45 62.809 222.902 60.8775C221.695 59.3725 220.888 58.758 221.655 59.9284C222.257 60.8472 221.908 61.5661 220.152 63.0173C217.4 65.292 216.066 66.2704 215.92 66.1238C215.789 65.9922 216.149 64.3303 217.626 58.2664C217.944 56.9609 218.203 55.6707 218.203 55.3991C218.203 55.0153 215.535 51.2959 215.259 51.2959C215.225 51.2959 215.246 51.8142 215.308 52.4479ZM37.6013 57.9549C43.0297 68.3383 42.921 68.1035 42.7977 69.197C42.7343 69.7598 42.7493 70.2166 42.8309 70.2124C42.9894 70.2038 45.5187 66.9763 45.6758 66.582C45.7273 66.4525 45.4733 66.5796 45.1115 66.8642C44.2068 67.5755 43.6936 67.5137 43.0209 66.6127C41.7362 64.8918 41.7273 64.9687 43.4719 62.7351L45.0555 60.7079L45.9927 60.8578C46.508 60.9401 47.3045 61.1642 47.7627 61.3554C48.6248 61.7156 48.6785 61.9583 48.1808 63.2418C48.0798 63.502 48.9712 62.4938 50.1617 61.0017C51.3521 59.5093 52.3261 58.2028 52.3261 58.0985C52.3261 57.9939 52.0641 58.08 51.7442 58.2896C51.3414 58.5533 50.9224 58.622 50.3836 58.512C49.6699 58.3664 37.3999 55.222 36.3886 54.9256C36.0547 54.8276 36.3429 55.548 37.6013 57.9549ZM41.8342 59.7186C43.1146 60.0578 44.2026 60.3731 44.2519 60.4192C44.3777 60.5373 41.8401 63.8332 41.6231 63.8332C41.5254 63.8332 40.9111 62.7688 40.258 61.4677C39.6049 60.1666 39.1686 59.1022 39.2883 59.1022C39.408 59.1022 40.5536 59.3796 41.8342 59.7186ZM225.095 67.4951C224.266 67.9421 223.544 68.3507 223.492 68.4031C223.439 68.4557 224.03 68.4869 224.806 68.4723C226.054 68.449 226.297 68.5241 226.925 69.1242C227.743 69.9069 228.312 71.102 227.998 71.3819C227.305 72.0007 217.373 76.8436 216.796 76.8436C216.331 76.8436 215.95 76.6352 215.606 76.1931C215.326 75.8354 215.131 75.6509 215.171 75.7832C215.367 76.4192 218.491 82.3117 218.584 82.2193C218.642 82.1611 218.58 81.8256 218.447 81.4736C218.297 81.0789 218.286 80.6814 218.419 80.4356C218.632 80.042 229.237 74.4781 229.774 74.4781C229.927 74.4781 230.265 74.976 230.526 75.5844C231.106 76.9352 230.97 77.7536 229.981 78.8799C229.586 79.3298 229.31 79.7468 229.37 79.8064C229.453 79.8882 231.934 78.7522 232.624 78.3171C232.751 78.2369 226.889 66.6803 226.722 66.6818C226.657 66.6823 225.925 67.0482 225.095 67.4951ZM37.8916 69.0121C37.8916 69.1202 38.205 69.603 38.5878 70.0845C39.6662 71.4413 40.1276 72.8496 39.8076 73.8081C39.4037 75.0188 38.1795 77.0362 37.6901 77.298C37.2362 77.5407 35.8531 76.8382 29.2547 73.0128C26.7188 71.5427 26.6522 71.4828 26.6691 70.6845C26.6785 70.2341 26.7739 69.6524 26.8813 69.3922C27.0186 69.0596 27.001 68.9894 26.8226 69.1557C26.5321 69.4265 22.9841 75.5632 22.9841 75.795C22.9841 75.8787 23.2931 75.6168 23.6705 75.2128C24.0482 74.8087 24.4918 74.4781 24.6568 74.4781C25.0153 74.4781 33.8823 79.492 35.0197 80.3379C35.7436 80.8764 35.8044 81.0145 35.6903 81.8633C35.6215 82.3766 35.5992 82.7612 35.6409 82.7179C35.7897 82.563 41.9144 71.8952 41.9144 71.7907C41.9144 71.6896 40.3536 70.5172 38.6607 69.3467C38.2379 69.0545 37.8916 68.9037 37.8916 69.0121ZM109.617 71.9813C110.217 72.871 110.947 73.7791 111.239 73.9993L111.77 74.3993L110.881 76.1966L109.992 77.9937L110.557 82.0906C111.367 87.9696 111.368 95.3401 110.559 98.6065C109.208 104.064 106.417 107.18 102.075 108.081C100 108.512 96.0186 108.271 94.5732 107.627C93.027 106.939 92.5959 106.529 91.9303 105.112C90.8941 102.906 91.1506 100.624 93.22 93.6388L93.6755 92.1012L93.776 95.8861C93.8643 99.2115 93.9438 99.823 94.4315 100.923C95.0711 102.366 96.4016 103.613 97.7254 104.009C98.2296 104.16 99.5559 104.284 100.673 104.284C103.048 104.284 106.108 103.446 106.931 102.569C108.277 101.137 108.773 97.9164 108.562 91.9829C108.257 83.4216 107.414 77.8355 105.879 74.1994L105.511 73.3294L106.782 71.7781C107.481 70.925 108.159 70.2577 108.289 70.2951C108.419 70.3327 109.017 71.0916 109.617 71.9813ZM132.303 74.7173C132.865 75.7195 132.892 75.9314 132.793 78.4994C132.555 84.6119 132.686 88.6994 133.213 91.6603C133.734 94.5815 134.666 97.2803 135.66 98.7408C137.411 101.315 141.66 102.536 145.449 101.552C148.131 100.856 150.856 99.3601 150.611 98.719C150.538 98.5303 149.773 98.0286 148.91 97.6039C147.373 96.8479 147.277 96.8323 144.134 96.8323C141.026 96.8323 140.88 96.8552 139.456 97.5608C138.648 97.9614 137.985 98.2377 137.985 98.175C137.985 97.8038 139.755 94.9969 140.578 94.0622C142.021 92.4232 143.699 91.6842 145.98 91.683C148.293 91.6816 149.744 92.1798 154.453 94.5929C158.177 96.5002 160.33 97.1871 162.583 97.1871C163.997 97.1871 164.046 97.3435 163.155 98.9905C162.134 100.877 161.427 101.836 160.871 102.086C160.555 102.229 159.746 102.251 158.833 102.142C155.892 101.791 150.452 102.905 146.031 104.764C140.025 107.289 137.974 107.256 135.633 104.597C133.837 102.557 132.394 98.6324 131.951 94.585C131.701 92.289 131.056 88.6712 130.898 88.6712C130.814 88.6712 130.61 89.3367 130.444 90.1496C129.82 93.2048 128.174 97.4248 126.717 99.7C123.25 105.118 118.217 107.906 111.306 108.236C109.205 108.336 108.407 108.299 108.407 108.103C108.407 107.954 108.6 107.832 108.836 107.832C109.573 107.832 113.236 106.504 115.362 105.466C121.146 102.641 125.36 97.8576 127.474 91.7147C128.133 89.7977 129.02 85.1456 129.564 80.7467C129.757 79.1854 130.148 76.9185 130.435 75.709C131.035 73.168 131.344 73.0039 132.303 74.7173ZM115.624 79.6467C117.882 80.8144 120.797 83.719 121.949 85.9509C123.1 88.1818 123.826 91.1047 123.946 93.9937C124.043 96.3272 124.039 96.3495 123.638 95.6495C123.413 95.2592 122.949 94.1947 122.606 93.284C121.183 89.506 120.538 88.9539 115.438 87.1364C112.967 86.2563 112.024 84.6503 112.27 81.7454C112.349 80.8046 112.536 79.6858 112.685 79.2596C113.004 78.3431 113.138 78.3606 115.624 79.6467ZM234.444 82.2871C234.542 82.9112 234.466 83.213 234.139 83.5009C233.65 83.9305 223.045 87.4885 222.253 87.4885C221.935 87.4885 221.571 87.2022 221.277 86.7197C221.02 86.2968 220.807 86.0573 220.807 86.1874C220.806 86.3173 221.669 89.0114 222.723 92.1739C224.637 97.9133 224.641 97.9235 225.268 97.7979C225.612 97.7286 226.613 97.5519 227.49 97.4055C229.14 97.1298 229.448 96.714 228.002 96.714C226.151 96.714 224.705 95.5102 223.848 93.2559C223.3 91.8114 223.292 91.1152 223.823 90.8343C224.825 90.3039 228.662 89.1117 228.978 89.2325C229.195 89.3163 229.325 89.6881 229.325 90.2292C229.325 90.9124 229.14 91.2766 228.437 91.9742C227.95 92.4594 227.39 92.9112 227.195 92.9787C227 93.0458 226.894 93.1551 226.959 93.2211C227.092 93.3564 233.703 91.247 233.952 90.9899C234.04 90.8989 233.437 90.8278 232.61 90.8319C231.225 90.8385 231.057 90.7817 230.453 90.1061C230.093 89.7031 229.798 89.224 229.798 89.0417C229.798 88.8274 230.74 88.4084 232.461 87.8572C233.924 87.3882 235.228 86.9929 235.359 86.9787C235.725 86.9387 236.393 89.3525 236.41 90.7723C236.423 91.9733 236.364 92.1052 235.359 93.1097C234.774 93.6952 234.294 94.2061 234.294 94.2451C234.294 94.2842 235.172 94.0163 236.246 93.6504C237.32 93.2844 238.185 92.8928 238.169 92.7797C238.105 92.3414 234.713 82.1462 234.519 81.8113C234.39 81.587 234.363 81.762 234.444 82.2871ZM34.5585 83.8465C34.3851 84.0551 34.0041 84.3171 33.7114 84.4282C33.4189 84.5394 30.1137 84.7464 26.3662 84.888C22.619 85.0297 19.2942 85.2005 18.9783 85.2677C18.4606 85.3775 18.9069 85.8958 23.5013 90.5197C26.3049 93.341 28.7729 95.9128 28.9859 96.2345C29.1989 96.556 29.3772 97.0882 29.3825 97.4173L29.3919 98.0151L29.7602 97.3357C29.9625 96.9621 30.3201 96.1105 30.5545 95.4432C30.789 94.7761 31.0564 94.0174 31.1487 93.7572C31.2544 93.4589 31.0822 93.5683 30.6826 94.0528C29.8508 95.0615 29.1982 95.0324 27.957 93.9315L26.9535 93.0411L27.5332 91.625C27.852 90.8461 28.2987 89.7033 28.5259 89.0852L28.9388 87.9616H30.5467C32.4319 87.9616 32.8158 88.2414 32.5609 89.4303C32.4691 89.8585 32.4587 90.1476 32.538 90.0728C32.6728 89.9453 34.7109 84.784 34.9828 83.8811C35.1383 83.3646 34.9698 83.3509 34.5585 83.8465ZM27.9533 88.4066C27.9533 88.7708 26.7452 91.855 26.507 92.0986C26.3579 92.2512 25.6643 91.6757 24.5129 90.4435C23.5418 89.4042 22.7474 88.4739 22.7474 88.376C22.7474 88.2783 23.9188 88.1982 25.3504 88.1982C26.7819 88.1982 27.9533 88.2918 27.9533 88.4066ZM15.3026 95.9452C15.1111 96.441 13.7552 102.399 13.756 102.743C13.756 102.875 13.9424 102.61 14.1701 102.155C14.4043 101.686 14.7891 101.299 15.057 101.263C15.3173 101.229 16.6482 101.453 18.0148 101.763L20.4994 102.325L20.423 103.009C20.3186 103.942 19.5065 107.129 19.3276 107.308C19.1071 107.529 14.7098 106.472 14.0508 106.041C13.5822 105.734 13.49 105.507 13.5662 104.854C13.618 104.41 13.6017 104.047 13.5296 104.047C13.3163 104.047 11.764 111.124 11.9389 111.299C12.0269 111.387 12.0991 111.245 12.0991 110.983C12.0991 110.721 12.3149 110.312 12.5785 110.074C13.0205 109.674 13.1819 109.665 14.649 109.953C18.9178 110.793 25.0051 112.369 25.4151 112.74C25.758 113.05 25.8359 113.349 25.7375 113.979C25.6563 114.498 25.6835 114.677 25.8101 114.455C25.986 114.147 27.4814 107.823 27.4791 107.398C27.4786 107.311 27.2651 107.59 27.0046 108.017C26.7439 108.445 26.3964 108.846 26.2323 108.909C26.0678 108.972 24.7213 108.755 23.2399 108.428C21.7583 108.1 20.4973 107.832 20.4377 107.832C20.2349 107.832 21.1876 102.926 21.4391 102.674C21.4932 102.62 22.7566 102.859 24.2464 103.205C27.2906 103.913 27.8678 104.297 27.635 105.46C27.5541 105.866 27.5919 106.176 27.7226 106.176C27.8494 106.176 27.9544 105.99 27.9561 105.762C27.9577 105.535 28.2758 104.018 28.6631 102.391C29.4272 99.1826 29.5377 98.3039 29.0297 99.4711C28.489 100.713 28.3666 100.709 21.9192 99.208C15.5401 97.7229 15.2819 97.6063 15.4935 96.3028C15.6313 95.4543 15.5506 95.3032 15.3026 95.9452ZM239.737 98.2227C239.737 98.662 239.571 99.1583 239.371 99.3256C239.025 99.6121 234.644 100.507 229.514 101.338C227.032 101.741 226.249 101.598 226.249 100.741C226.249 100.493 226.142 100.224 226.012 100.144C225.704 99.9536 225.683 99.7581 226.391 103.635C227.028 107.112 227.193 107.698 227.199 106.511C227.205 105.242 227.63 104.989 230.508 104.54C231.485 104.387 232.523 104.212 232.815 104.15C233.244 104.06 233.348 104.142 233.346 104.575C233.345 104.936 232.429 106.073 230.553 108.045L227.761 110.978L228.104 113.071C228.294 114.223 228.539 115.165 228.65 115.165C228.761 115.165 228.851 114.968 228.851 114.725C228.851 114.129 234.289 108.556 234.458 108.979C234.773 109.762 236.074 110.925 236.919 111.178C238.806 111.743 240.859 110.527 241.398 108.523C241.729 107.296 241.599 105.82 240.791 101.621C240.471 99.9611 240.21 98.338 240.21 98.0134C240.21 97.6891 240.104 97.4237 239.973 97.4237C239.843 97.4237 239.737 97.7832 239.737 98.2227ZM240.535 103.604C240.924 105.549 240.53 106.712 239.264 107.358C237.889 108.06 236.823 108.168 235.847 107.705C234.88 107.246 234.595 106.818 234.159 105.167C233.803 103.818 233.566 103.974 236.897 103.364C240.368 102.728 240.36 102.728 240.535 103.604ZM80.282 115.203C83.409 116.139 85.0231 120.282 84.67 126.466L84.5449 128.661L88.3354 128.595L92.126 128.53L92.0925 122.459L92.0588 116.388L93.5484 116.236C94.3676 116.152 96.5286 116.116 98.3506 116.156L101.663 116.23L101.724 132.138L101.785 148.046H96.9222H92.0595L92.0917 141.6L92.1238 135.153L88.3158 135.089L84.5077 135.024V141.535V148.046H79.6462H74.7846L74.8545 135.094C74.9323 120.652 75.0057 121.378 73.2719 119.459C72.2141 118.288 72.2811 117.919 73.7919 116.589C75.4843 115.1 78.0839 114.545 80.282 115.203ZM139.588 116.025L140.124 116.169L140.112 128.263C140.104 135.457 140.197 140.861 140.338 141.6C140.632 143.134 141.043 143.94 141.988 144.838C142.913 145.717 142.906 146.116 141.949 147.041C139.321 149.583 134.462 149.454 132.173 146.78C130.596 144.939 130.598 144.977 130.641 129.846C130.662 122.372 130.731 116.171 130.797 116.066C130.933 115.846 138.781 115.809 139.588 116.025ZM179.6 116.031L180.16 116.18L180.074 128.86C179.978 143.029 179.924 142.493 181.64 144.599C182.51 145.666 182.613 145.905 182.384 146.33C181.895 147.235 180.363 148.224 178.791 148.65C177.471 149.007 177.02 149.03 175.786 148.801C174.067 148.481 172.397 147.514 171.649 146.404C170.431 144.599 170.404 144.234 170.404 129.926C170.404 122.61 170.469 116.455 170.548 116.249C170.672 115.928 171.275 115.875 174.867 115.878C177.163 115.88 179.293 115.949 179.6 116.031ZM114.45 125.233C115.255 125.614 116.172 126.333 116.92 127.172L118.109 128.506V127.04V125.573H122.878H127.647L127.492 128.944C127.407 130.798 127.269 133.772 127.185 135.553C127.028 138.865 127.303 141.713 127.924 143.214C128.089 143.614 128.557 144.32 128.965 144.782C129.371 145.246 129.704 145.775 129.704 145.96C129.704 146.522 127.991 148.004 126.894 148.391C126.324 148.591 125.193 148.756 124.38 148.756C121.65 148.756 119.601 147.623 118.719 145.625L118.203 144.456L117.527 145.429C116.13 147.446 113.364 148.876 110.892 148.862C108.054 148.846 105.746 147.155 104.189 143.953C102.905 141.313 102.631 139.955 102.648 136.337C102.661 133.611 102.737 133.047 103.318 131.369C104.893 126.821 107.498 124.663 111.439 124.638C112.82 124.629 113.428 124.749 114.45 125.233ZM154.195 125.207C155.446 125.815 156.151 126.389 157.212 127.665L157.863 128.449V127.01V125.573H162.595H167.329L167.327 127.88C167.327 129.148 167.217 131.889 167.084 133.971C166.698 139.978 167.215 143.037 168.948 145.011L169.689 145.855L169.15 146.654C168.354 147.837 166.861 148.564 164.959 148.701C162.806 148.855 161.207 148.439 160.01 147.415C158.947 146.506 158.564 145.92 158.349 144.876L158.208 144.192L157.563 145.166C156.041 147.465 152.51 149.236 150.154 148.884C146.783 148.378 144.517 146.092 143.135 141.8C142.474 139.746 142.447 139.492 142.534 136.219C142.609 133.387 142.721 132.52 143.175 131.25C144.241 128.264 145.766 126.403 148.043 125.309C149.961 124.388 152.426 124.347 154.195 125.207ZM14.8251 125.878C12.1566 127.389 12.1317 131.462 14.7815 133.015C16.5695 134.062 18.5474 133.779 19.9382 132.277C20.8503 131.292 21.091 130.703 21.091 129.454C21.091 126.269 17.6263 124.292 14.8251 125.878ZM236.267 125.931C233.678 127.483 233.666 131.49 236.245 133.002C240.024 135.216 244.185 131.08 241.975 127.308C240.834 125.364 238.253 124.741 236.267 125.931ZM113.536 131.484C111.236 133.502 111.15 140.104 113.398 141.996C114.513 142.934 115.814 142.846 116.833 141.768C117.869 140.669 118.207 139.429 118.218 136.691C118.233 133.031 117.294 131.11 115.366 130.854C114.521 130.741 114.29 130.821 113.536 131.484ZM154.076 130.944C152.871 131.385 151.867 133.385 151.581 135.916C151.297 138.422 152.312 141.583 153.616 142.257C156.119 143.55 158.167 140.993 158.169 136.573C158.171 132.685 156.312 130.128 154.076 130.944ZM98.3661 159.042C99.5453 159.733 100.365 161.201 100.357 162.61C100.344 164.877 98.6144 166.788 95.2033 168.302C95.1643 168.32 96.256 170.114 97.6288 172.29C99.0019 174.466 100.125 176.289 100.125 176.34C100.125 176.391 98.6433 176.432 96.8318 176.432H93.5382L93.0792 175.663C92.8267 175.241 92.0591 173.831 91.3735 172.53C90.688 171.229 90.1 170.131 90.0669 170.093C90.0337 170.054 89.8342 170.195 89.6234 170.406C89.0214 171.008 89.1279 172.769 89.8397 173.984C90.4142 174.963 90.4228 175.031 90.0413 175.612C88.7266 177.618 85.1762 177.202 83.8658 174.89C82.446 172.383 84.0254 169.059 87.3184 167.622C87.9199 167.36 88.4403 167.122 88.4746 167.094C88.5087 167.066 87.4789 165.297 86.1857 163.163L83.8345 159.282L86.8207 159.215C88.463 159.179 89.9218 159.194 90.0626 159.247C90.2032 159.301 90.9954 160.691 91.8231 162.335C92.6506 163.981 93.4126 165.378 93.5159 165.443C93.6194 165.506 93.8709 165.32 94.0751 165.029C94.649 164.21 94.5494 162.311 93.8702 161.124L93.2999 160.126L93.7874 159.508C94.7465 158.288 96.7348 158.086 98.3661 159.042ZM29.0082 160.519C29.2327 161.567 28.9972 162.156 28.2393 162.441C27.8867 162.572 26.7465 163.014 25.7052 163.422C24.6641 163.83 23.2798 164.362 22.6291 164.604C21.9784 164.848 20.5941 165.373 19.5529 165.77C18.5118 166.169 17.4367 166.496 17.1641 166.496C16.6627 166.497 16.0555 165.964 15.8163 165.314C15.7446 165.119 15.6774 165.085 15.6673 165.238C15.6426 165.604 18.0141 171.751 18.2978 172.056C18.4188 172.186 18.4074 172 18.2722 171.642C17.8037 170.401 18.2243 169.964 20.8953 168.91C22.2394 168.379 23.4944 167.912 23.6844 167.872C23.9218 167.821 24.3056 168.464 24.9098 169.927C25.3936 171.098 25.7969 172.216 25.8061 172.411C25.8174 172.652 24.9538 173.086 23.1019 173.771C21.6052 174.324 20.2839 174.776 20.1653 174.776C20.0469 174.776 19.6551 174.43 19.2947 174.007C18.8844 173.526 18.7065 173.416 18.8189 173.712C20.6715 178.6 21.1781 179.889 21.3002 180.029C21.3804 180.12 21.446 179.749 21.446 179.204C21.446 178.048 21.6062 177.939 25.3504 176.534C28.771 175.25 30.5595 174.559 31.8264 174.034C33.1991 173.465 33.953 173.593 34.4681 174.483C35.0413 175.475 34.7594 174.548 33.5133 171.346C32.2722 168.157 32.0453 167.771 32.1684 169.059C32.2216 169.619 32.1324 170.053 31.9292 170.222C31.7507 170.371 30.5114 170.918 29.1749 171.438C27.0087 172.283 26.7292 172.341 26.5957 171.983C26.5136 171.763 26.0945 170.682 25.6646 169.581C25.2346 168.48 24.9613 167.502 25.0574 167.407C25.3774 167.091 29.6418 165.551 30.1984 165.551C30.5578 165.551 30.9158 165.816 31.2389 166.32C31.5098 166.743 31.7332 167.017 31.7353 166.929C31.7412 166.694 29.1319 160.026 28.9769 159.879C28.904 159.811 28.918 160.099 29.0082 160.519ZM225.59 163.106C224.338 163.722 223.75 164.737 221.637 169.931C219.908 174.177 219.937 174.08 220.68 173.18C221.029 172.756 221.467 172.411 221.655 172.411C221.962 172.411 224.28 173.309 231.218 176.118L233.466 177.027L233.45 178.16C233.431 179.547 233.5 179.438 235.04 175.659C236.259 172.666 236.483 171.804 235.717 173.061C235.459 173.484 235.059 173.831 234.83 173.831C234.6 173.832 233.316 173.392 231.974 172.854C229.869 172.009 229.546 171.808 229.608 171.375C229.671 170.934 230.156 170.757 233.651 169.899C235.837 169.363 237.663 168.885 237.713 168.835C237.896 168.65 239.263 165.054 239.257 164.775C239.252 164.609 239.154 164.648 239.025 164.869C238.902 165.08 238.506 165.371 238.145 165.517C237.406 165.812 231.75 167.206 231.283 167.206C231.086 167.206 230.981 166.858 230.98 166.201C230.978 163.545 228.078 161.88 225.59 163.106ZM134.74 163.273C135.159 163.45 135.8 163.875 136.164 164.218C136.529 164.561 136.875 164.841 136.934 164.841C136.991 164.841 137.04 164.518 137.04 164.124V163.406L139.673 163.473L142.307 163.54L142.266 167.798C142.214 173.411 142.684 175.119 144.149 174.655C145.036 174.374 145.74 171.376 145.816 167.561C145.885 164.086 145.93 163.945 147.064 163.613C148.233 163.271 154.478 163.242 155.851 163.571L156.798 163.797L156.861 169.997L156.924 176.196H154.435H151.947V171.229V166.26H151.134C150.204 166.26 150.286 165.96 149.863 170.907C149.579 174.233 148.903 175.679 147.115 176.78C146.011 177.46 145.821 177.497 143.448 177.497C141.171 177.497 140.819 177.435 139.563 176.819C138.055 176.079 137.361 175.212 137.126 173.776C136.744 171.457 135.604 171.753 134.2 174.533C133.605 175.712 133.06 176.453 132.59 176.727C131.799 177.189 129.864 177.281 128.875 176.905L128.253 176.669L128.747 175.975C129.019 175.593 129.399 174.833 129.592 174.286C129.785 173.739 130.155 172.949 130.413 172.531L130.883 171.77L130.386 171.321C128.499 169.615 128.469 166.041 130.329 164.261C131.65 162.995 133.245 162.638 134.74 163.273ZM105.479 163.571C105.926 163.781 106.489 164.208 106.732 164.516C107.314 165.256 107.461 165.224 107.461 164.359V163.642L110.002 163.71L112.544 163.777L112.546 168.39C112.548 172.54 112.594 173.078 113.009 173.764C113.588 174.719 114.005 174.884 114.699 174.429C115.556 173.869 115.89 172.114 116.358 165.732L116.492 163.903L117.478 163.614C118.642 163.273 124.869 163.245 126.272 163.575L127.219 163.797L127.282 169.997L127.345 176.196H124.857H122.368V171.229V166.26H121.562H120.755L120.61 168.331C120.245 173.612 119.391 175.809 117.284 176.892C116.253 177.422 115.815 177.497 113.737 177.497C111.545 177.497 111.268 177.443 110.082 176.788C109.376 176.397 108.519 175.692 108.176 175.219L107.554 174.361L106.587 175.262C104.405 177.296 101.642 176.944 100.05 174.428C98.7036 172.301 98.5682 168.341 99.7585 165.909C100.918 163.54 103.334 162.553 105.479 163.571ZM163.779 165.943C163.779 168.348 163.798 168.445 164.202 168.08C166.107 166.356 169.392 166.755 170.8 168.881C171.754 170.323 171.87 172.777 171.055 174.303C169.735 176.777 166.708 177.37 164.397 175.609L163.641 175.032L162.988 175.723C161.922 176.853 159.272 176.999 158.257 175.985C157.803 175.532 157.799 175.476 158.172 175.064C158.811 174.358 159.046 172.398 159.046 167.766V163.422H161.413H163.779V165.943ZM227.837 166.285C229.386 167.035 229.849 168.203 229.323 170.045C228.868 171.638 228.929 171.632 225.86 170.402C224.318 169.784 222.979 169.21 222.888 169.128C222.627 168.895 223.557 167.03 224.261 166.378C225.069 165.629 226.411 165.594 227.837 166.285ZM134.206 166.728C133.191 167.742 133.341 169.744 134.496 170.601L135.147 171.083L135.798 170.6C136.53 170.054 136.801 168.978 136.529 167.686C136.239 166.308 135.097 165.836 134.206 166.728ZM104.783 167.159C104.116 167.895 103.8 169.827 104.131 171.142C104.489 172.567 104.969 173.12 105.845 173.12C106.351 173.12 106.642 172.927 107.003 172.352C107.66 171.303 107.588 168.001 106.892 167.231C106.34 166.622 105.302 166.585 104.783 167.159ZM164.109 170.168C163.62 170.913 163.632 172.744 164.131 173.504C164.595 174.213 165.718 174.257 166.382 173.594C167.053 172.922 167.048 170.815 166.373 170.09C165.698 169.366 164.61 169.404 164.109 170.168ZM217.717 177.674C216.647 179.528 215.221 182.008 214.548 183.185C213.874 184.363 212.269 186.652 210.983 188.272C209.697 189.891 207.851 192.228 206.883 193.465C205.915 194.7 204.578 196.289 203.913 196.995C203.104 197.854 202.917 198.147 203.347 197.882C204.52 197.157 205.048 197.355 207.262 199.35C209.647 201.501 210.759 202.641 210.612 202.787C210.556 202.844 209.659 202.79 208.618 202.667C207.578 202.544 205.076 202.3 203.059 202.124L199.391 201.804L197.499 203.697C196.457 204.739 195.819 205.503 196.078 205.395C196.339 205.287 196.989 205.193 197.522 205.187C198.46 205.174 198.633 205.307 202.555 209.049C204.789 211.181 206.679 213.178 206.756 213.486C206.84 213.82 206.743 214.283 206.516 214.628C205.764 215.776 206.164 215.541 207.91 213.808C209.73 212 210.215 211.273 209.002 212.169C207.858 213.015 207.303 212.69 203.296 208.836C198.99 204.694 198.628 205.057 206.372 205.746C215.147 206.528 215.428 206.545 215.334 206.285C215.285 206.151 213.223 204.105 210.75 201.739C208.276 199.373 206.099 197.185 205.909 196.879C205.548 196.297 205.759 195.125 206.253 194.963C206.384 194.92 207.052 195.311 207.737 195.831C208.423 196.35 209.04 196.776 209.108 196.776C209.176 196.776 208.961 196.314 208.629 195.749C207.836 194.396 207.864 193.525 208.74 192.316C209.132 191.777 209.51 191.335 209.582 191.335C209.654 191.335 210.572 192 211.623 192.814C212.673 193.627 214.085 194.718 214.757 195.238C218.553 198.172 219.623 199.173 219.623 199.789C219.623 200.127 219.437 200.615 219.209 200.872C218.982 201.129 218.92 201.297 219.071 201.246C219.373 201.143 223.875 195.524 223.758 195.396C223.718 195.353 223.463 195.539 223.193 195.809C222.921 196.08 222.453 196.302 222.151 196.302C221.81 196.302 220.227 195.223 217.952 193.44C215.942 191.864 213.74 190.148 213.057 189.626C212.373 189.103 211.815 188.587 211.815 188.478C211.815 188.369 212.224 187.849 212.724 187.323C213.53 186.478 213.759 186.368 214.72 186.368C215.317 186.368 216.08 186.471 216.414 186.598C217.375 186.964 217.114 186.564 215.722 185.539C214.33 184.515 214.161 184.155 214.887 183.768C215.249 183.574 215.562 183.62 216.248 183.971C217.506 184.613 225.833 189.437 226.19 189.73C226.564 190.038 226.574 191.151 226.205 191.52C226.052 191.674 225.984 191.86 226.056 191.931C226.129 192.004 227.283 190.169 228.623 187.855C229.963 185.54 231.361 183.14 231.73 182.52C232.099 181.9 232.398 181.314 232.393 181.219C232.385 181.035 229.22 178.561 228.995 178.561C228.921 178.561 229.18 179.061 229.567 179.672C230.719 181.486 230.485 183.811 228.95 185.822C228.622 186.252 228.204 186.604 228.02 186.604C227.758 186.604 223.363 184.22 222.964 183.862C222.733 183.656 223.686 182.623 224.367 182.341C224.975 182.089 225.335 182.084 226.192 182.313C228.18 182.844 227.849 182.592 222.607 179.586C221.264 178.815 220.427 178.677 221.452 179.394C221.726 179.587 222.186 180.125 222.475 180.591C222.942 181.347 222.969 181.54 222.721 182.366C222.569 182.876 222.336 183.292 222.204 183.292C221.956 183.292 217.527 180.8 217.18 180.465C217.073 180.361 217.46 179.536 218.041 178.63C219.44 176.448 220.835 175.769 222.565 176.426C223.704 176.859 223.176 176.292 221.513 175.297C220.601 174.75 219.81 174.303 219.757 174.303C219.704 174.303 218.785 175.82 217.717 177.674ZM36.6498 180.237C35.9019 180.347 32.7074 180.704 29.551 181.032C23.9143 181.617 23.7964 181.619 22.9248 181.188C22.4367 180.947 22.0375 180.817 22.0375 180.899C22.0375 180.981 22.5676 181.953 23.2153 183.057C24.3196 184.942 24.6967 185.276 24.1781 183.912C23.8336 183.006 24.4847 182.375 26.0091 182.137C27.1923 181.951 27.2824 181.974 27.6846 182.557C28.6636 183.977 29.8463 186.1 29.8463 186.437C29.8463 186.939 28.0159 189.205 27.61 189.205C27.4273 189.205 27.0569 188.926 26.7874 188.583C26.5176 188.24 26.2968 188.042 26.2968 188.14C26.2968 188.352 28.5041 192.271 29.2741 193.426L29.8006 194.216L29.7779 193.41C29.7514 192.481 29.7124 192.542 34.8931 185.383C36.9329 182.564 38.6016 180.195 38.6016 180.12C38.6016 179.961 38.4996 179.967 36.6498 180.237ZM33.4911 181.696C33.0422 182.48 30.6539 185.643 30.5051 185.65C30.3195 185.658 28.1712 182.05 28.2907 181.929C28.3778 181.843 31.7464 181.476 32.8773 181.431C33.4419 181.408 33.6132 181.482 33.4911 181.696ZM41.7547 186.312C42.7312 187.413 42.3739 187.857 37.3077 191.845C34.709 193.891 32.3901 195.616 32.1548 195.677C31.9083 195.741 31.4081 195.522 30.9745 195.159C30.019 194.358 30.2424 194.732 32.2956 197.367C36.2928 202.497 38.2017 204.832 38.3473 204.768C39.068 204.453 42.3768 202.29 42.3814 202.132C42.3848 202.02 42.2015 202.003 41.9736 202.094C40.9541 202.496 39.1125 202.749 38.3008 202.597C37.3345 202.416 35.662 200.879 34.9074 199.477C34.3799 198.499 34.3626 198.52 37.8948 195.712C44.6572 190.334 44.7263 190.297 45.8302 191.488C46.1491 191.833 46.4103 192.037 46.4103 191.942C46.4103 191.666 41.9021 186.022 41.5994 185.919C41.4473 185.868 41.517 186.045 41.7547 186.312ZM53.6275 201.473C53.107 201.708 50.0909 202.943 46.9255 204.216C41.9669 206.211 41.0363 206.514 40.2055 206.403L39.2412 206.273L40.8607 207.904C41.7512 208.802 42.5296 209.486 42.5902 209.426C42.6508 209.365 42.5235 209.12 42.3074 208.881C41.4264 207.909 42.0866 206.781 43.8451 206.254C44.8081 205.966 44.824 205.972 45.7907 206.908C46.3268 207.427 47.138 208.197 47.5935 208.616C48.4986 209.451 48.5073 209.568 47.7988 211.366C47.2409 212.781 46.9624 212.956 46.0256 212.476C45.6195 212.268 46.2971 213.086 47.7073 214.505C49.0064 215.813 50.1489 216.883 50.2462 216.883C50.3434 216.883 50.3088 216.632 50.1694 216.326C49.8289 215.579 50.1267 214.55 52.7724 207.331C53.9586 204.094 54.929 201.354 54.929 201.24C54.929 200.946 54.6998 200.988 53.6275 201.473ZM50.5499 204.05C50.4563 204.278 50.0646 205.316 49.6799 206.356C49.2951 207.397 48.8952 208.335 48.7913 208.443C48.5569 208.682 45.6512 206.03 45.7674 205.682C45.8564 205.416 49.8531 203.655 50.3992 203.643C50.6129 203.638 50.6633 203.774 50.5499 204.05ZM193.923 206.549C193.389 206.964 191.542 208.42 189.82 209.786C188.097 211.152 186.432 212.43 186.12 212.625C185.796 212.826 185.55 213.206 185.549 213.503C185.549 214.147 185.127 214.381 183.301 214.754C180.504 215.327 178.881 216.558 177.629 219.062C176.892 220.534 176.793 220.943 176.794 222.532C176.794 224.032 176.908 224.572 177.475 225.753C178.247 227.361 179.492 228.65 181.052 229.458C182.613 230.265 185.379 230.223 187.257 229.363C189.171 228.487 190.864 226.83 191.452 225.26C191.887 224.095 191.9 223.27 191.482 223.27C191.39 223.27 191.127 223.863 190.898 224.588C190.364 226.28 189.11 227.565 187.451 228.116C185.61 228.727 184.42 228.33 182.626 226.508C179.368 223.198 178.627 218.787 180.964 216.603C182.674 215.004 185.566 215.055 187.381 216.714C188.271 217.527 188.183 217.07 187.074 215.126C185.922 213.105 185.949 212.625 187.213 212.625C187.773 212.625 188.205 213.046 190.069 215.405C191.276 216.932 192.813 218.876 193.482 219.722C195.741 222.575 195.873 222.946 194.972 223.905C194.689 224.206 194.518 224.452 194.59 224.452C194.714 224.452 199.686 220.602 202.989 217.95L204.457 216.77L203.603 215.23C202.168 212.641 202.179 212.645 202.3 214.741C202.394 216.383 202.342 216.719 201.874 217.476C201.317 218.379 199.201 220.194 198.708 220.194C198.239 220.194 194.777 216.221 194.777 215.682C194.777 215.334 195.817 214.754 196.44 214.754C196.775 214.754 197.554 215.073 198.17 215.464C198.786 215.854 199.338 216.173 199.396 216.173C199.5 216.173 198.216 214.475 195.961 211.63C195.375 210.891 194.821 210.28 194.73 210.273C194.638 210.265 194.769 210.712 195.02 211.265C195.57 212.477 195.6 213.14 195.14 214.027C194.513 215.242 194.21 215.103 192.307 212.739C191.323 211.515 190.518 210.421 190.518 210.308C190.518 209.933 193.159 208.138 194.072 207.893C195.073 207.623 195.797 207.814 196.981 208.656C197.538 209.052 197.67 209.083 197.557 208.791C197.316 208.159 195.385 205.766 195.133 205.782C195.002 205.79 194.458 206.135 193.923 206.549ZM60.3124 206.497C61.1578 207.449 60.9846 208.019 59.1406 210.351C58.2035 211.537 56.7551 213.389 55.9222 214.466C55.0893 215.545 54.0549 216.801 53.6238 217.258C52.8439 218.084 52.8355 218.087 51.9915 217.734C51.5247 217.539 51.143 217.422 51.143 217.473C51.143 217.551 54.8462 220.501 59.68 224.275C60.305 224.763 60.9056 225.162 61.0144 225.162C61.2662 225.162 64.3942 222.021 64.3942 221.768C64.3942 221.664 63.7863 221.927 63.0436 222.352C61.2167 223.396 59.9278 223.406 58.469 222.386C57.0419 221.389 56.1122 220.481 56.1122 220.084C56.1122 219.586 63.4366 210.295 63.96 210.129C64.217 210.047 64.6805 210.156 65.018 210.377C65.3483 210.594 65.6623 210.726 65.7158 210.673C65.7695 210.619 64.6154 209.633 63.1514 208.481C59.8855 205.912 59.642 205.742 60.3124 206.497ZM74.1185 216.458C74.4562 216.757 74.7954 217.178 74.8722 217.395C74.9602 217.642 74.0849 219.394 72.5078 222.125C71.1306 224.511 69.7432 226.917 69.4248 227.472C68.6622 228.801 68.1346 229.077 67.225 228.623C65.7451 227.885 66.6181 228.644 68.4778 229.713C69.5503 230.328 71.0139 231.177 71.7297 231.597L73.0312 232.361L72.3805 231.582C72.0227 231.154 71.7297 230.674 71.7297 230.518C71.7297 230.361 72.4399 229.012 73.3081 227.52C78.4171 218.738 78.1344 219.113 79.3268 219.529C80.1516 219.817 80.9583 220.776 80.9583 221.469C80.9583 222.104 76.7316 231.596 76.1448 232.28C75.7922 232.69 75.5314 232.764 74.7842 232.664C74.2754 232.596 73.8594 232.58 73.8594 232.629C73.8594 232.741 77.2193 234.297 77.9375 234.518C78.4208 234.667 78.4096 234.632 77.823 234.163C76.8011 233.348 76.9566 232.567 79.0652 227.926C80.1064 225.635 80.9583 223.65 80.9583 223.515C80.9583 223.38 81.0532 223.27 81.1689 223.27C81.2849 223.27 81.6121 224.147 81.8961 225.222C85.0049 236.973 85.4341 238.508 85.5739 238.368C85.6241 238.318 86.684 235.992 87.9294 233.198C90.6592 227.075 90.8958 226.578 91.3357 226.049C91.7242 225.582 92.815 225.505 93.5418 225.894C93.9546 226.115 94.0034 226.298 93.8724 227.136C93.7876 227.676 93.5129 228.811 93.2618 229.656C92.8158 231.158 91.9954 234.057 91.2303 236.836C90.7465 238.594 90.1809 239.193 89.1658 239.025C88.2886 238.878 90.9876 239.748 94.161 240.634C99.2353 242.051 102.293 240.961 104.065 237.108C105.326 234.367 105.002 231.313 103.245 229.369C102.14 228.146 100.385 227.292 97.049 226.354C92.7966 225.157 91.3553 224.691 90.3906 224.199C89.1816 223.583 88.9998 223.625 89.7751 224.343C90.1317 224.674 90.4234 225.166 90.4234 225.437C90.4234 225.979 87.5805 232.495 87.3444 232.495C87.2635 232.495 86.6309 230.233 85.9386 227.468C85.2463 224.704 84.5986 222.224 84.4997 221.958C84.3825 221.643 83.5856 221.152 82.2248 220.555C81.0725 220.049 79.0108 218.979 77.6429 218.177C76.2749 217.373 74.7842 216.536 74.33 216.316L73.5044 215.915L74.1185 216.458ZM168.546 222.316C166.872 222.977 165.933 223.502 167.032 223.165C167.325 223.075 167.778 223.068 168.038 223.151C168.679 223.355 168.672 224.919 168.016 228.411L167.515 231.067L165.729 229.593C162.833 227.204 161.649 226.085 161.649 225.738C161.649 225.561 161.942 225.255 162.3 225.061C162.657 224.867 162.849 224.704 162.725 224.698C162.306 224.681 156.445 226.934 156.445 227.113C156.444 227.212 156.748 227.291 157.121 227.291C157.851 227.291 158.154 227.506 162.45 231.075C163.938 232.312 165.211 233.483 165.279 233.677C165.348 233.874 165.683 234.773 166.024 235.678C166.761 237.631 166.67 238.306 165.604 238.77C165.186 238.951 164.993 239.104 165.176 239.11C165.468 239.117 166.561 238.713 171.469 236.777L172.652 236.31L171.422 236.445L170.192 236.58L169.726 235.543C169.47 234.973 168.998 233.864 168.679 233.08L168.097 231.653L168.657 228.585C168.965 226.898 169.323 224.932 169.454 224.215C169.586 223.5 169.91 222.622 170.174 222.265C170.766 221.464 170.703 221.466 168.546 222.316ZM99.1878 227.823C101.046 228.76 101.692 230.882 101.088 234.067C100.664 236.299 99.8749 237.972 98.6827 239.164C97.6605 240.186 97.4367 240.302 96.48 240.302C95.8941 240.302 95.1336 240.173 94.7897 240.016C94.2218 239.758 94.1776 239.644 94.3087 238.775C94.3879 238.248 94.7278 236.86 95.064 235.689C95.4002 234.517 95.9202 232.708 96.2195 231.667C96.5185 230.627 96.8915 229.216 97.0481 228.533C97.3775 227.096 97.5994 227.023 99.1878 227.823ZM151.356 228.013C150.835 228.122 148.759 228.596 146.741 229.065C143.866 229.735 142.077 229.991 138.459 230.251C135.922 230.435 133.298 230.648 132.632 230.725L131.416 230.867L131.526 232.449C131.678 234.67 131.828 234.929 132.215 233.639C132.638 232.227 133.574 231.43 135.043 231.228C135.663 231.143 136.195 231.101 136.224 231.134C136.413 231.343 137.058 240.783 136.996 242.43L136.921 244.441L136.093 244.739C135.377 244.996 135.633 245.016 137.985 244.887C140.976 244.723 143.435 244.4 142.073 244.351C141.559 244.332 141.2 244.149 140.974 243.79C140.623 243.234 140.245 239.537 139.972 233.973L139.818 230.84H141.119C142.676 230.84 143.504 231.381 144.163 232.831L144.601 233.796L144.606 231.845C144.611 230.283 144.681 229.893 144.961 229.893C145.538 229.893 146.007 230.877 146.49 233.104C146.944 235.205 147.626 238.161 148.293 240.923C148.704 242.633 148.624 242.936 147.618 243.458L146.86 243.853L147.806 243.717C148.326 243.642 149.977 243.278 151.473 242.907C153.371 242.439 153.935 242.23 153.336 242.215C152.859 242.204 152.339 242.026 152.163 241.814C151.989 241.604 151.567 240.279 151.224 238.868C150.592 236.269 150.612 236.044 151.477 236.044C151.643 236.044 154.712 238.68 157.174 240.936L157.785 241.499L159.975 240.964L162.165 240.43L161.325 240.069C160.862 239.872 159.312 238.669 157.88 237.397L155.276 235.084L156.481 233.922L157.686 232.762L157.581 231.327C157.496 230.145 157.355 229.763 156.783 229.154C155.544 227.837 153.877 227.487 151.356 228.013ZM152.552 229.087C153.501 229.537 154.313 231.045 154.313 232.356C154.313 233.741 153.692 234.557 152.217 235.109C151.512 235.372 150.829 235.552 150.699 235.509C150.448 235.425 149.509 232.052 149.243 230.276L149.084 229.216L150.101 228.989C151.553 228.664 151.67 228.668 152.552 229.087ZM105.937 229.205C106.009 229.323 106.254 229.42 106.481 229.42C107.556 229.42 107.677 230.368 107.092 234.211C106.889 235.544 106.703 237.81 106.678 239.244C106.635 241.704 106.667 241.898 107.224 242.608C108.44 244.157 111.696 245.139 113.768 244.581C115.14 244.212 116.27 243.384 116.757 242.391C117.255 241.376 117.716 238.866 118.093 235.125C118.443 231.647 118.721 231.087 120.1 231.08C120.481 231.078 120.715 230.999 120.623 230.908C120.438 230.723 115.921 230.138 115.763 230.277C115.71 230.325 116.01 230.484 116.431 230.631C117.764 231.095 117.766 231.142 116.906 238.342C116.518 241.59 115.885 242.895 114.39 243.527C113.38 243.955 112.339 243.934 111.413 243.469C109.72 242.619 109.541 241.709 110.177 237.186C110.369 235.817 110.623 233.827 110.742 232.764C110.861 231.701 111.09 230.674 111.25 230.48C111.41 230.288 111.919 230.13 112.38 230.13C113.832 230.13 113.085 229.915 110.404 229.562C106.242 229.014 105.796 228.979 105.937 229.205ZM124.346 230.596C123.077 230.892 121.955 231.747 121.439 232.815C120.862 234.005 120.817 235.035 121.292 236.17C121.758 237.286 122.578 237.998 125.131 239.502C128.567 241.527 129.283 242.816 127.792 244.305C127.175 244.922 126.886 245.032 125.888 245.032C125.241 245.032 124.416 244.879 124.054 244.693C122.627 243.955 121.193 241.781 121.187 240.346C121.186 240.176 121.079 240.102 120.949 240.183C120.814 240.267 120.712 241.459 120.712 242.954C120.712 245.482 120.728 245.565 121.145 245.188C121.708 244.678 122.217 244.693 123.731 245.269C127.612 246.744 131.325 244.279 130.772 240.595C130.557 239.157 129.385 237.937 126.908 236.566C124.352 235.153 123.315 234.207 123.315 233.289C123.315 232.341 123.868 231.637 124.873 231.305C125.575 231.074 125.898 231.095 126.763 231.424C127.942 231.874 129.364 233.376 129.591 234.413C129.924 235.927 130.176 235.268 130.163 232.923C130.152 231.222 130.083 230.646 129.934 231.016C129.671 231.669 129.035 231.698 127.861 231.109C126.791 230.573 125.345 230.362 124.346 230.596Z" fill="white"/>
</g>
<defs>
<clipPath id="clip0_1_2">
<rect width="255" height="255" rx="127.5" fill="white"/>
</clipPath>
</defs>
</svg>
